<svg xmlns="http://www.w3.org/2000/svg" width="25" height="25" fill="none"><path fill="#000" d="M21.875 16.906a.751.751 0 0 1-1.024-.281l-1.781-3.113a11.552 11.552 0 0 1-3.383 1.562l.55 3.302a.75.75 0 0 1-.737.874.75.75 0 0 1-.739-.627l-.54-3.242a12.47 12.47 0 0 1-3.44 0l-.54 3.242a.75.75 0 1 1-1.482-.247l.553-3.302a11.549 11.549 0 0 1-3.38-1.564l-1.776 3.115a.753.753 0 1 1-1.307-.75l1.875-3.281a14.393 14.393 0 0 1-1.809-1.875.75.75 0 1 1 1.168-.938C5.64 11.707 8.362 14 12.5 14s6.86-2.296 8.417-4.219a.75.75 0 1 1 1.166.938 14.393 14.393 0 0 1-1.81 1.875l1.876 3.281a.751.751 0 0 1-.274 1.031Z"/></svg>