<svg xmlns="http://www.w3.org/2000/svg" width="20" height="11" fill="none"><path fill="#000" d="M19.376 8.406a.75.75 0 0 1-1.024-.281l-1.781-3.112a11.55 11.55 0 0 1-3.383 1.561l.55 3.302a.749.749 0 1 1-1.476.247l-.54-3.242c-1.141.159-2.299.159-3.44 0l-.54 3.242a.75.75 0 1 1-1.482-.247l.553-3.302a11.55 11.55 0 0 1-3.38-1.564L1.657 8.125a.753.753 0 0 1-1.307-.75l1.875-3.281a14.39 14.39 0 0 1-1.81-1.875.75.75 0 1 1 1.169-.938C3.14 3.207 5.863 5.5 10.001 5.5s6.86-2.296 8.417-4.219a.75.75 0 1 1 1.166.938 14.39 14.39 0 0 1-1.81 1.875l1.876 3.281a.75.75 0 0 1-.274 1.031Z"/></svg>